<svg xmlns="http://www.w3.org/2000/svg" version="1.1" xmlns:xlink="http://www.w3.org/1999/xlink" xmlns:svgjs="http://svgjs.dev/svgjs" width="1000" height="1000" viewBox="0 0 1000 1000"><rect width="1000" height="1000" fill="#ffffff"></rect><g transform="matrix(0.7,0,0,0.7,149.57576681376838,327.1942491937764)"><svg viewBox="0 0 396 196" data-background-color="#ffffff" preserveAspectRatio="xMidYMid meet" height="494" width="1000" xmlns="http://www.w3.org/2000/svg" xmlns:xlink="http://www.w3.org/1999/xlink"><g id="tight-bounds" transform="matrix(1,0,0,1,0.23999477392533208,-0.05342059566270052)"><svg viewBox="0 0 395.52 196.1068411913254" height="196.1068411913254" width="395.52"><g><svg viewBox="0 0 395.52 196.1068411913254" height="196.1068411913254" width="395.52"><g transform="matrix(1,0,0,1,0,144.74725534145483)"><svg viewBox="0 0 395.52 51.35958584987058" height="51.35958584987058" width="395.52"><g><svg viewBox="0 0 395.52 51.35958584987058" height="51.35958584987058" width="395.52"><g><svg viewBox="0 0 395.52 51.35958584987058" height="51.35958584987058" width="395.52"><g transform="matrix(1,0,0,1,0,0)"><svg width="395.52" viewBox="4.909999847412109 -36.25 282.92999267578125 36.7400016784668" height="51.35958584987058" data-palette-color="#1ebbd7"><path d="M24.8 0L4.91 0 4.91-35.69 9.06-35.69 9.06-3.76 24.8-3.76 24.8 0ZM61.84-17.9L61.84-17.9Q61.84-9.33 57.5-4.42 53.17 0.49 45.46 0.49L45.46 0.49Q37.57 0.49 33.29-4.33 29-9.16 29-17.94L29-17.94Q29-26.66 33.3-31.46 37.6-36.25 45.51-36.25L45.51-36.25Q53.2-36.25 57.52-31.37 61.84-26.49 61.84-17.9ZM33.4-17.9L33.4-17.9Q33.4-10.64 36.48-6.9 39.57-3.15 45.46-3.15L45.46-3.15Q51.39-3.15 54.42-6.88 57.44-10.62 57.44-17.9L57.44-17.9Q57.44-25.1 54.43-28.82 51.41-32.54 45.51-32.54L45.51-32.54Q39.57-32.54 36.48-28.8 33.4-25.05 33.4-17.9ZM96.53 0L92.23 0 87.79-11.35 73.48-11.35 69.09 0 64.89 0 79-35.84 82.49-35.84 96.53 0ZM74.95-15.09L86.49-15.09 82.34-26.15Q81.54-28.25 80.68-31.3L80.68-31.3Q80.15-28.96 79.15-26.15L79.15-26.15 74.95-15.09ZM129.31-35.69L129.31 0 124.58 0 105.07-29.96 104.88-29.96Q105.27-24.68 105.27-20.29L105.27-20.29 105.27 0 101.43 0 101.43-35.69 106.12-35.69 125.58-5.86 125.77-5.86Q125.72-6.52 125.55-10.1 125.38-13.67 125.43-15.21L125.43-15.21 125.43-35.69 129.31-35.69ZM167.81-14.99L167.81-18.7 179.94-18.7 179.94-1.34Q177.11-0.44 174.18 0.02 171.25 0.49 167.39 0.49L167.39 0.49Q159.29 0.49 154.77-4.33 150.26-9.16 150.26-17.85L150.26-17.85Q150.26-23.41 152.49-27.6 154.72-31.79 158.92-34 163.12-36.21 168.76-36.21L168.76-36.21Q174.47-36.21 179.41-34.11L179.41-34.11 177.8-30.44Q172.96-32.5 168.49-32.5L168.49-32.5Q161.97-32.5 158.31-28.61 154.65-24.73 154.65-17.85L154.65-17.85Q154.65-10.62 158.18-6.88 161.71-3.15 168.54-3.15L168.54-3.15Q172.25-3.15 175.79-4L175.79-4 175.79-14.99 167.81-14.99ZM208.41-3.71L208.41 0 188.51 0 188.51-35.69 208.41-35.69 208.41-32.01 192.66-32.01 192.66-20.51 207.46-20.51 207.46-16.85 192.66-16.85 192.66-3.71 208.41-3.71ZM244.2-35.69L244.2 0 239.46 0 219.95-29.96 219.76-29.96Q220.15-24.68 220.15-20.29L220.15-20.29 220.15 0 216.32 0 216.32-35.69 221-35.69 240.46-5.86 240.66-5.86Q240.61-6.52 240.44-10.1 240.27-13.67 240.31-15.21L240.31-15.21 240.31-35.69 244.2-35.69ZM258.16 0L254.01 0 254.01-35.69 258.16-35.69 258.16 0ZM287.84-3.71L287.84 0 267.95 0 267.95-35.69 287.84-35.69 287.84-32.01 272.1-32.01 272.1-20.51 286.89-20.51 286.89-16.85 272.1-16.85 272.1-3.71 287.84-3.71Z" opacity="1" transform="matrix(1,0,0,1,0,0)" fill="#1ebbd7" class="undefined-text-0" data-fill-palette-color="primary" id="text-0"></path></svg></g></svg></g></svg></g></svg></g><g transform="matrix(1,0,0,1,137.51113791836661,0)"><svg viewBox="0 0 120.49772416326672 120.49772416326672" height="120.49772416326672" width="120.49772416326672"><g><svg></svg></g><g id="icon-0"><svg viewBox="0 0 120.49772416326672 120.49772416326672" height="120.49772416326672" width="120.49772416326672"><g><path d="M0 60.249c0-33.275 26.974-60.249 60.249-60.249 33.275 0 60.249 26.974 60.249 60.249 0 33.275-26.974 60.249-60.249 60.249-33.275 0-60.249-26.974-60.249-60.249zM60.249 115.866c30.717 0 55.617-24.901 55.617-55.617 0-30.717-24.901-55.617-55.617-55.617-30.717 0-55.617 24.901-55.617 55.617 0 30.717 24.901 55.617 55.617 55.617z" data-fill-palette-color="accent" fill="#1ebbd7" stroke="transparent"></path><ellipse rx="59.64637346081703" ry="59.64637346081703" cx="60.24886208163336" cy="60.24886208163336" fill="#1ebbd7" stroke="transparent" stroke-width="0" fill-opacity="1" data-fill-palette-color="accent"></ellipse></g><g transform="matrix(1,0,0,1,47.82387532999677,29.56351527037793)"><svg viewBox="0 0 24.849973503273198 61.37069362251086" height="61.37069362251086" width="24.849973503273198"><g><svg xmlns="http://www.w3.org/2000/svg" xmlns:xlink="http://www.w3.org/1999/xlink" version="1.1" x="0" y="0" viewBox="30.599994659423828 2.000000476837158 38.91250991821289 96.10021209716797" style="enable-background:new 0 0 100 100;" xml:space="preserve" height="61.37069362251086" width="24.849973503273198" class="icon-a-0" data-fill-palette-color="quaternary" id="a-0"><g fill="#ffffff" data-fill-palette-color="quaternary"><path d="M49.4 36.3l0.4 1.3c0.5 0.7 1.3 1.2 2.2 1.4 0.1-0.3 0.2-0.9 0.2-1.9 0.1-1.4 0.2-4 1.1-6.7 0.7-1.9 1.8-3.8 2.4-4.8-0.6-0.4-1.2-0.7-1.4-0.9C54 24.4 54 23.6 54 23.6c0.3-0.4 0.6-0.8 0.8-1.2 0 0 0.1 0 0.1 0 0.2-0.8 0.5-2.7-1.1-4.2-2-1.8-5.2-3.3-5.2-3.3-2.7 1.3-3.8 3.5-3.8 3.5l0 0c0 0.2 0 0.3 0.1 0.4 0 0.3 0 0.6 0 0.9 0 2.6 1 4.7 3.1 5.6l0 0 0.2 1.9c0 0.1 0 0.2 0 0.2l0 0.1 0 0c-0.4 2-1.4 3.2-2.5 4.2-1.2 1.1-1.2 2.5-1.2 2.5-0.1 3.3 0.4 3.7 1.2 7.4 0 0.2 0.1 0.4 0.1 0.5 0.4 0.2 1.1 0.4 1.8 0.3l0.1 0c-0.4-1.5 0.2-2.5 0.2-2.5 0 1.4 0.2 2.2 0.5 2.5 0.6 0.2 1.8 0.5 3.1 0.1 0.1-1.3 0.3-2.3 0.3-2.9-1.4-0.3-2.1-1-2.4-1.5-0.2-0.3-0.3-0.6-0.2-1L49.4 36.3zM51.4 18.9c0.5 0 1 0.5 1 0.5-1 1.1-1.9 0-1.9 0S50.9 18.9 51.4 18.9zM45.9 19.3c0 0 0.4-0.5 0.9-0.5s1 0.5 1 0.5C46.8 20.4 45.9 19.3 45.9 19.3z" fill="#ffffff" data-fill-palette-color="quaternary"></path><path d="M47.6 9.7c0.1 0.4 0.2 1 0.6 1.4 0.1-0.2 0.3-0.4 0.5-0.4 0.2 0 0.3 0.1 0.4 0.3 0.6-0.6 1.5-1.5 2-2.1C51.7 7.9 52 6.8 52 6.8c-0.4 0.5-1 0.7-1 0.7 1-0.7 1.1-2.2 1.1-2.2-0.6 0.7-1.2 0.8-1.2 0.8s0.5-0.5 0.9-1.1 0.7-3 0.7-3c-2.4 1.1-3.3 4.1-3.3 4.1L49.3 5l-0.8 1.2C47.9 7.3 48 7.9 48 7.9l-0.4-0.7C47.5 8.2 47.5 9 47.6 9.7 47.6 9.6 47.6 9.7 47.6 9.7z" fill="#ffffff" data-fill-palette-color="quaternary"></path><path d="M44.5 17.9c1.2-2.1 4.1-3.9 4.1-3.9s3.7 1.9 5.8 3.6c1.5 1.3 1.4 3.6 1.3 4.7 0.3-0.2 0.6-0.4 0.8-0.7 0.9-1 3.8-4.8 1.3-8.1-1.8-2.5-4.3-3.5-6.1-4-1.1 1.2-2.1 2-2.4 2.3 0 0.1 0 0.3 0 0.4 0 0.7-0.3 1.3-0.7 1.3-0.4 0-0.7-0.6-0.7-1.3 0-0.1 0-0.2 0-0.3-0.2-0.2-0.8-0.7-1-1.7-4.1 2.7-3.8 4.8-3.6 5.7C43.5 16.5 44.1 17.3 44.5 17.9z" fill="#ffffff" data-fill-palette-color="quaternary"></path><path d="M33.5 27.4c0.1 0.3 0.2 0.6 0.2 1 0.2 0 0.8 0 1-0.2 0.3-0.3 0.2-0.5 0.1-0.8-0.1-0.2-0.6-0.9-0.6-1-0.6-0.5-1.4-1.1-1.9-1-0.2 0-0.4 0.1-0.7 0.3C32.4 25.9 33.3 26.9 33.5 27.4z" fill="#ffffff" data-fill-palette-color="quaternary"></path><path d="M41.4 33.8c0.1-2.2 0.5-4.1 0.7-5-0.3 0.1-0.5 0.3-0.8 0.4-1.1 0.6-2.5 1.9-2.7 2.9 0 0-0.5 0.9-1.2 2.2 1.1 5.1-0.2 8.5-0.2 8.5s0.3-0.8 0.1-3.2c-0.1-1.7-0.4-3.4-0.6-4.2-0.2 0.1-1.1 0.6-2.2 0.7-1 0-2.2-0.3-2.5-0.5-0.7 2.7-1.2 6.8 0.2 9.7 0 0 2.3 2.9 4.4 0.7 0 0 0 0 0 0 0-0.1 3.7-3.2 5.3-5.7C41.6 38.5 41.3 35.6 41.4 33.8z" fill="#ffffff" data-fill-palette-color="quaternary"></path><path d="M33 32.7c0 0 2.1 0.6 3.3-0.5 0 0 0.1-0.1 1.2-1.4 0.5-0.6 1.6-2.8 0.8-5.6 0 0-0.3-1-1-0.7-0.5 0.3-0.9 1.2-1 2.5 0 0-1.1-1.5-1.4-3.2s-1-3.7-1.8-3.6c-0.6 0.1-0.3 1.6-0.1 2.5 0.1 0.4 0.2 0.9 0.2 1.4l0.1 0.6c0 0 0.6 0.4 1.1 1 1.1 1.1 1.2 2.2 0.5 2.7-0.5 0.4-1 0.3-1.2 0.2-0.1 0.2-0.2 0.4-0.4 0.6-0.5 0.4-1 0.2-1.4-0.2-0.2-0.2-0.5-0.9-0.5-0.9s0.5 0.6 0.7 0.7 0.7 0.4 1 0.1c0.4-0.3 0.2-1.1 0-1.5-0.2-0.4-1.3-1.5-1.7-1.4-0.1 0-0.2 0.1-0.3 0.1-0.3 0.4-0.5 0.9-0.5 1.4C30.7 28.5 31.5 31.5 33 32.7z" fill="#ffffff" data-fill-palette-color="quaternary"></path><path d="M43.6 47.7c0 0 0.1 0 0.1 0.1 0 0 0 0 0 0 0 0 0 0 0 0 0 0 0.1 0 0.1 0.1 0 0 0.1 0 0.1 0.1 0 0 0.1 0 0.1 0.1 0.1 0 0.1 0.1 0.2 0.1 0 0 0.1 0 0.1 0.1 0.1 0 0.2 0.1 0.3 0.2 0 0 0 0 0.1 0 0.4 0.2 0.8 0.5 1.1 0.7 0 0 0 0 0 0 0.1 0 0.2 0.1 0.2 0.1 0 0 0 0 0 0 0 0 0.1 0 0.1 0 0 0 0 0 0 0 0.2 0.1 0.3 0.2 0.5 0.2 0.1 0.1 0.3 0.1 0.3 0.1 0.7 0.2 3.4 0.5 4.4 0.6 0.2-0.4 0.5-1 0.7-1.5 0.2-0.6 0.2-1.8 0.2-2.2-0.2-0.2-2.7-3-5-3 0 0-0.8 0-1 0.5-0.2 0.4 0.4 1.1 0.6 1.2 0.3 0.2 0.9 0.5 0.8 0.8-0.1 0.3-1 0.1-1.3 0 0 0 0 0 0 0C46.3 46 46 46 45.7 45.9c0 0 0 0 0 0l-2.4-0.6c0 0 0 0 0 0l0 0c0 0-0.2-0.1-0.5-0.1-0.5 0-1.8 0.3-1.3 0.9C41.7 46.4 42.6 47 43.6 47.7 43.6 47.7 43.6 47.7 43.6 47.7z" fill="#ffffff" data-fill-palette-color="quaternary"></path><path d="M42 33.8c-0.1 1 0.3 5.4 0.5 7.4 0.2 1.3 0.5 2.5 0.7 3.6 0.2 0 0.6 0.1 0.8 0.1 0.3 0 1 0.2 1.5 0.4-0.2-1.2-0.5-2.5-0.8-3.5-0.9-3.2-1.1-6.8-1.1-8.1s2.3-3.2 2.7-3.9c0.3-0.5 1.2-3.3 1.4-4-2.2 0-5 2.1-5 2.1s-0.1 0.3-0.1 0.7c0 0 0 0 0 0l0 0C42.6 28.5 42.1 32.7 42 33.8z" fill="#ffffff" data-fill-palette-color="quaternary"></path><path d="M43.8 48.6c0.3 1.9 0.4 3.1 0.4 3.1s1.4 1.5 2.3-1c0 0 0-0.1 0-0.1 0-0.1 0-0.3-0.1-0.5-0.1-0.1-0.3-0.1-0.4-0.2C45.2 49.5 44.4 49 43.8 48.6z" fill="#ffffff" data-fill-palette-color="quaternary"></path><path d="M49.7 43.5c0.3 0.1 0.5 0.3 0.8 0.4 0.3 0.2 0.6 0.4 0.8 0.6 0-0.5 0.1-1 0.1-1.5C51.2 43.4 50.6 43.6 49.7 43.5z" fill="#ffffff" data-fill-palette-color="quaternary"></path><path d="M59 28.3c0.3-0.4 0.9-0.6 1.4-0.5l3.3 0.6c0 0-3.8-3-6.9-2.6 0 0-0.1 0.1-0.3 0.3-0.5 0.8-2.2 3.9-2.7 5.7-0.5 2-0.7 5.9-1 7.4-0.1 0.7-0.5 3.3-0.7 6 0.5 0.5 0.8 0.9 0.8 0.9s1.4 0.1 2.6-0.1c1.2-0.2 4.8-0.9 5.1-0.8 0 0-0.4-0.9-0.6-2.3-3.9-4.3-2.6-10.4-2.1-11.9C58.4 29.3 59 28.3 59 28.3z" fill="#ffffff" data-fill-palette-color="quaternary"></path><path d="M46.8 43.1c-0.3 0-0.7-0.1-1-0.4 0.1 0.3 0.1 0.6 0.2 0.9C46.2 43.3 46.5 43.2 46.8 43.1z" fill="#ffffff" data-fill-palette-color="quaternary"></path><path d="M68.5 37c-0.6-1.3-0.8-2.1-0.8-2.1 0.3-4.8-4.7-6.3-7.8-6.2l-0.2-0.1-0.6 1.2c0 0-1.2 1.8-1.2 6.2 0 2.6 1 4.5 1.9 5.7 0-0.2 0-0.5 0-0.7 0-2.4 0.3-3.3 0.3-3.3l-0.7-1.8c0 0 1.3 1.3 1.3 1.8s-0.6 2.1 0 5.9c0 0 0.3 1 0.9 2 0 0-2.6 0.6-5.1 0.9 0.1 0.4 0.3 1.5 0.1 2.5-0.2 0.9-0.5 1.8-0.6 2.3 2.7 0.7 5.9 1.6 7.1 1.9 1.8 0.1 3.1-0.3 3.8-0.5 1.7-0.6 1.3-4.8 1.3-5.6 0-0.9 1.1-3.5 1.1-3.5C69.9 41.8 69.1 38.2 68.5 37z" fill="#ffffff" data-fill-palette-color="quaternary"></path><path d="M52.1 51.3c0 0.1 0.1 0.2 0.1 0.3 0 0 1 2.2 2.3 2.2 0.9 0 2.9-0.5 4.1-0.8-2.3-0.6-4.8-1.3-5.4-1.4C52.8 51.5 52.5 51.4 52.1 51.3z" fill="#ffffff" data-fill-palette-color="quaternary"></path><path d="M64.1 75.6c3-3.4 1.7-9.4 0.6-11.5-0.6-1.3-1.7-2.9-2.5-4.7-0.7-1.8-0.9-3.7-0.2-5.4-0.6-0.2-1.3-0.3-2-0.5-0.5 0.2-4 1.4-5.7 1.1-1.9-0.2-2.7-2.2-2.8-2.8 0-0.2-0.1-0.4-0.1-0.6-0.4-0.1-0.9-0.2-1.4-0.3-0.9-0.2-1.9-0.2-2.8-0.5 0.1 1.7-0.4 2.3-0.4 2.3s-0.4 0.2-1.5 0.8-2.3 2.5-1.7 7.4c0 0 0.7 4 4.9 6.7s4.9 5.9 1.2 10-0.1 10.1 0.7 10.8 2.4 3 5.8 3.1c3.4 0.1 6.5 3 5.9 4.6s-2.7 2-2.7 2 5.4 0.1 5.6-4c0.1-2.7-0.4-4.5-5.6-7.7C54.1 83 61.1 79.1 64.1 75.6z" fill="#ffffff" data-fill-palette-color="quaternary"></path></g></svg></g></svg></g></svg></g></svg></g><g></g></svg></g><defs></defs></svg><rect width="395.52" height="196.1068411913254" fill="none" stroke="none" visibility="hidden"></rect></g></svg></g></svg>